<?xml version="1.0" encoding="UTF-8" standalone="no"?>
<!-- Created with Inkscape (http://www.inkscape.org/) -->

<svg
   xmlns:dc="http://purl.org/dc/elements/1.1/"
   xmlns:cc="http://creativecommons.org/ns#"
   xmlns:rdf="http://www.w3.org/1999/02/22-rdf-syntax-ns#"
   xmlns:svg="http://www.w3.org/2000/svg"
   xmlns="http://www.w3.org/2000/svg"
   xmlns:xlink="http://www.w3.org/1999/xlink"
   xmlns:sodipodi="http://sodipodi.sourceforge.net/DTD/sodipodi-0.dtd"
   xmlns:inkscape="http://www.inkscape.org/namespaces/inkscape"
   width="304.31"
   height="304.31"
   id="svg2"
   version="1.1"
   inkscape:version="0.48.3.1 r9886"
   sodipodi:docname="probe-icon.svg"
   inkscape:export-filename="/home/sctfic/probe-logo.png"
   inkscape:export-xdpi="90"
   inkscape:export-ydpi="90">
  <defs
     id="defs4">
    <linearGradient
       id="linearGradient5207">
      <stop
         style="stop-color:#808080;stop-opacity:1;"
         offset="0"
         id="stop5209" />
      <stop
         style="stop-color:#5fbcd3;stop-opacity:0.22352941;"
         offset="1"
         id="stop5211" />
    </linearGradient>
    <inkscape:perspective
       sodipodi:type="inkscape:persp3d"
       inkscape:vp_x="-413.42203 : 125.92592 : 1"
       inkscape:vp_y="0 : 1000 : 0"
       inkscape:vp_z="386.57797 : 125.92592 : 1"
       inkscape:persp3d-origin="-13.422028 : 59.259245 : 1"
       id="perspective3838" />
    <linearGradient
       inkscape:collect="always"
       id="linearGradient3830">
      <stop
         style="stop-color:#bcd45f;stop-opacity:1;"
         offset="0"
         id="stop3832" />
      <stop
         style="stop-color:#bcd45f;stop-opacity:0;"
         offset="1"
         id="stop3834" />
    </linearGradient>
    <filter
       inkscape:collect="always"
       id="filter3821"
       x="-0.14507636"
       width="1.2901527"
       y="-0.69424599"
       height="2.3884921"
       color-interpolation-filters="sRGB">
      <feGaussianBlur
         inkscape:collect="always"
         stdDeviation="2.5643315"
         id="feGaussianBlur3823" />
    </filter>
    <linearGradient
       inkscape:collect="always"
       xlink:href="#linearGradient3830"
       id="linearGradient3836"
       x1="72.807861"
       y1="281.2915"
       x2="72.807861"
       y2="347.24463"
       gradientUnits="userSpaceOnUse"
       gradientTransform="translate(-200.69645,623.23904)" />
    <linearGradient
       inkscape:collect="always"
       xlink:href="#linearGradient5207"
       id="linearGradient5213"
       x1="871.68103"
       y1="349.45737"
       x2="1564.9382"
       y2="1038.2831"
       gradientUnits="userSpaceOnUse" />
    <linearGradient
       inkscape:collect="always"
       xlink:href="#linearGradient5207"
       id="linearGradient5215"
       gradientUnits="userSpaceOnUse"
       x1="861.55127"
       y1="-35.474621"
       x2="1564.9382"
       y2="1038.2831" />
    <linearGradient
       inkscape:collect="always"
       xlink:href="#linearGradient5207"
       id="linearGradient5222"
       gradientUnits="userSpaceOnUse"
       x1="861.55127"
       y1="-35.474621"
       x2="1564.9382"
       y2="1038.2831" />
    <linearGradient
       inkscape:collect="always"
       xlink:href="#linearGradient5207"
       id="linearGradient5224"
       gradientUnits="userSpaceOnUse"
       x1="871.68103"
       y1="349.45737"
       x2="1564.9382"
       y2="1038.2831" />
  </defs>
  <sodipodi:namedview
     id="base"
     pagecolor="#ffffff"
     bordercolor="#666666"
     borderopacity="1.0"
     inkscape:pageopacity="0.0"
     inkscape:pageshadow="2"
     inkscape:zoom="1.5794998"
     inkscape:cx="195.79532"
     inkscape:cy="100.40289"
     inkscape:document-units="px"
     inkscape:current-layer="layer1"
     showgrid="false"
     showguides="true"
     inkscape:guide-bbox="true"
     inkscape:window-width="1366"
     inkscape:window-height="743"
     inkscape:window-x="0"
     inkscape:window-y="0"
     inkscape:window-maximized="1"
     fit-margin-top="10"
     fit-margin-left="10"
     fit-margin-right="10"
     fit-margin-bottom="10" />
  <metadata
     id="metadata7">
    <rdf:RDF>
      <cc:Work
         rdf:about="">
        <dc:format>image/svg+xml</dc:format>
        <dc:type
           rdf:resource="http://purl.org/dc/dcmitype/StillImage" />
        <dc:title></dc:title>
      </cc:Work>
    </rdf:RDF>
  </metadata>
  <g
     inkscape:label="Layer 1"
     inkscape:groupmode="layer"
     id="layer1"
     transform="translate(-298.82582,-686.08032)">
    <flowRoot
       xml:space="preserve"
       id="flowRoot2985"
       style="font-size:280px;font-style:normal;font-weight:normal;line-height:125%;letter-spacing:0px;word-spacing:0px;fill:#333333;fill-opacity:1;stroke:none;font-family:Sans"
       transform="translate(8.2304539,581.45365)"><flowRegion
         id="flowRegion2987"><rect
           id="rect2989"
           width="775.56201"
           height="350.74396"
           x="27.223808"
           y="49.256042"
           style="font-size:280px;fill:#333333" /></flowRegion><flowPara
         id="flowPara2991"
         style="font-size:280px;font-style:normal;font-variant:normal;font-weight:normal;font-stretch:normal;fill:#333333;font-family:Ubuntu Mono;-inkscape-font-specification:Ubuntu Mono"> </flowPara></flowRoot>    <path
       sodipodi:type="arc"
       style="fill:#cccccc;stroke:none;filter:url(#filter3821)"
       id="path3815"
       sodipodi:cx="303.57712"
       sodipodi:cy="291.73788"
       sodipodi:rx="27.540363"
       sodipodi:ry="3.1655586"
       d="m 317.86287,294.44426 c -13.00379,0.90687 -29.94141,0.43035 -37.83121,-1.06433 -7.88981,-1.49469 -3.7441,-3.44155 9.2597,-4.34842 13.0038,-0.90687 29.94141,-0.43036 37.83122,1.06433 6.1738,1.1696 5.11244,2.66273 -2.63124,3.70162"
       transform="translate(76.075987,632.36218)"
       sodipodi:start="1.0254424"
       sodipodi:end="6.9915872"
       sodipodi:open="true" />
    <rect
       style="fill:url(#linearGradient3836);fill-opacity:1;stroke:none"
       id="rect3828"
       width="181.06999"
       height="70.275414"
       x="-195.63156"
       y="902.94775" />
    <g
       sodipodi:type="inkscape:box3d"
       style="fill:#bcd45f;stroke:none"
       id="g3840"
       inkscape:perspectiveID="#perspective3838"
       inkscape:corner0="0.48309839 : -0.097558641 : 0 : 1"
       inkscape:corner7="0.2291827 : -0.20796364 : 0.25 : 1">
      <path
         sodipodi:type="inkscape:box3dside"
         id="path3850"
         style="fill:#afafde;fill-rule:evenodd;stroke:none"
         inkscape:box3dsidetype="13"
         d="m 155.10943,1049.6378 55.71385,38.2517 80.20992,-37.7616 -59.42864,-27.2015 z" />
      <path
         sodipodi:type="inkscape:box3dside"
         id="path3842"
         style="fill:#353564;fill-rule:evenodd;stroke:none"
         inkscape:box3dsidetype="6"
         d="m 155.10943,975.19563 0,74.44217 76.49513,-26.7114 0,-63.70379 z" />
      <path
         sodipodi:type="inkscape:box3dside"
         id="path3852"
         style="fill:#e9e9ff;fill-rule:evenodd;stroke:none"
         inkscape:box3dsidetype="11"
         d="m 231.60456,959.22261 59.42864,16.26615 0,74.63914 -59.42864,-27.2015 z" />
      <path
         sodipodi:type="inkscape:box3dside"
         id="path3844"
         style="fill:#669f4d;fill-opacity:1;fill-rule:evenodd;stroke:none"
         inkscape:box3dsidetype="5"
         d="m 155.10943,975.19563 55.71385,22.87406 80.20992,-22.58093 -59.42864,-16.26615 z" />
      <path
         sodipodi:type="inkscape:box3dside"
         id="path3848"
         style="fill:#e3ffd7;fill-opacity:1;fill-rule:evenodd;stroke:none"
         inkscape:box3dsidetype="14"
         d="m 210.82328,998.06969 0,89.81981 80.20992,-37.7616 0,-74.63914 z" />
      <path
         sodipodi:type="inkscape:box3dside"
         id="path3846"
         style="fill:#97bf86;fill-opacity:1;fill-rule:evenodd;stroke:none"
         inkscape:box3dsidetype="3"
         d="m 155.10943,975.19563 55.71385,22.87406 0,89.81981 -55.71385,-38.2517 z" />
    </g>
    <g
       id="g5217"
       transform="translate(-2.2872192e-4,-32.536444)">
      <path
         transform="translate(112.79457,803.30238)"
         d="m 326.68569,33.744804 c 0,35.839944 -26.78638,64.893959 -59.82906,64.893959 -33.04268,0 -59.82906,-29.054015 -59.82906,-64.893959 0,-35.8399436 26.78638,-64.893959 59.82906,-64.893959 33.04268,0 59.82906,29.0540154 59.82906,64.893959 z"
         sodipodi:ry="64.893959"
         sodipodi:rx="59.829063"
         sodipodi:cy="33.744804"
         sodipodi:cx="266.85663"
         id="path3005"
         style="fill:none;stroke:#5fbcd3;stroke-width:22;stroke-miterlimit:4;stroke-opacity:1;stroke-dasharray:none"
         sodipodi:type="arc" />
      <g
         style="fill:#ffffff;stroke:url(#linearGradient5224);stroke-width:176;stroke-miterlimit:4;stroke-dasharray:none"
         id="g3003"
         transform="matrix(-0.125,0,0,-0.125,582.13996,969.3903)">
        <path
           sodipodi:nodetypes="ssssssscsssscssscss"
           style="fill:#ffffff;stroke:url(#linearGradient5222);stroke-width:176;stroke-miterlimit:4;stroke-dasharray:none"
           inkscape:connector-curvature="0"
           id="path3005-8"
           d="M 1920,384 C 1920,278 1882.5,187.5 1807.5,112.5 1732.5,37.5 1642,0 1536,0 L 448,0 C 324.66667,0 219.16667,43.833333 131.5,131.5 43.833333,219.16667 0,324.66667 0,448 c 0,86.66667 23.333333,166.66667 70,240 46.66667,73.33333 109.33333,128.33333 188,165 -1.33333,20 -2,34.33333 -2,43 0,141.3333 50,262 150,362 100,100 220.66667,150 362,150 104,0 199.16667,-29 285.5,-87 86.3333,-58 149.1667,-135 188.5,-231 47.3333,41.3333 102.6667,62 166,62 70.6667,0 131,-25 181,-75 50,-50 75,-110.33333 75,-181 0,-50.66667 -13.6667,-96.66667 -41,-138 86.6667,-20.66667 157.8333,-65.83333 213.5,-135.5 55.6667,-69.66667 83.5,-149.16667 83.5,-238.5 z" />
      </g>
    </g>
  </g>
</svg>
