<?xml version="1.0" encoding="UTF-8" standalone="no"?>
<!-- Created with Inkscape (http://www.inkscape.org/) -->

<svg
   xmlns:dc="http://purl.org/dc/elements/1.1/"
   xmlns:cc="http://creativecommons.org/ns#"
   xmlns:rdf="http://www.w3.org/1999/02/22-rdf-syntax-ns#"
   xmlns:svg="http://www.w3.org/2000/svg"
   xmlns="http://www.w3.org/2000/svg"
   xmlns:xlink="http://www.w3.org/1999/xlink"
   xmlns:sodipodi="http://sodipodi.sourceforge.net/DTD/sodipodi-0.dtd"
   xmlns:inkscape="http://www.inkscape.org/namespaces/inkscape"
   width="1052.3622"
   height="744.09448"
   id="svg2"
   version="1.1"
   inkscape:version="0.48.3.1 r9886"
   sodipodi:docname="New document 1">
  <defs
     id="defs4">
    <linearGradient
       id="linearGradient3763">
      <stop
         style="stop-color:#cc3333;stop-opacity:1;"
         offset="0"
         id="stop3765" />
      <stop
         id="stop3775"
         offset="0.5"
         style="stop-color:#ffff66;stop-opacity:1;" />
      <stop
         style="stop-color:#ccff66;stop-opacity:1;"
         offset="0.75"
         id="stop3777" />
      <stop
         id="stop3787"
         offset="0.875"
         style="stop-color:#99ffff;stop-opacity:1;" />
      <stop
         style="stop-color:#0066cc;stop-opacity:1;"
         offset="1"
         id="stop3767" />
    </linearGradient>
    <linearGradient
       inkscape:collect="always"
       xlink:href="#linearGradient3763"
       id="linearGradient3769"
       x1="238.53554"
       y1="177.91203"
       x2="238.53554"
       y2="499.31674"
       gradientUnits="userSpaceOnUse" />
  </defs>
  <sodipodi:namedview
     id="base"
     pagecolor="#ffffff"
     bordercolor="#666666"
     borderopacity="1.0"
     inkscape:pageopacity="0.0"
     inkscape:pageshadow="2"
     inkscape:zoom="0.77812699"
     inkscape:cx="542.88788"
     inkscape:cy="372.04724"
     inkscape:document-units="px"
     inkscape:current-layer="layer1"
     showgrid="false"
     inkscape:window-width="1366"
     inkscape:window-height="743"
     inkscape:window-x="0"
     inkscape:window-y="0"
     inkscape:window-maximized="1" />
  <metadata
     id="metadata7">
    <rdf:RDF>
      <cc:Work
         rdf:about="">
        <dc:format>image/svg+xml</dc:format>
        <dc:type
           rdf:resource="http://purl.org/dc/dcmitype/StillImage" />
        <dc:title></dc:title>
      </cc:Work>
    </rdf:RDF>
  </metadata>
  <g
     inkscape:label="Layer 1"
     inkscape:groupmode="layer"
     id="layer1"
     transform="translate(0,-308.2677)">
    <path
       style="fill:none;stroke:url(#linearGradient3769);stroke-width:3;stroke-linecap:square;stroke-linejoin:miter;stroke-miterlimit:4;stroke-opacity:1;stroke-dasharray:none"
       d="m 46.264942,449.79805 10.281098,-11.56624 7.710824,-7.71082 41.124396,-28.27302 25.70274,-1.28514 10.2811,24.41761 5.14055,15.42165 3.85541,10.28109 2.57028,12.85138 0,2.57027 5.14054,-16.70678 6.42569,-24.41761 7.71082,-26.98788 3.85542,-19.27706 8.99596,-21.84734 1.28513,-3.85541 1.28514,0 1.28514,0 2.57027,6.42569 1.28514,2.57027 0,1.28514 1.28514,0 1.28514,0 7.71082,-8.99596 2.57027,-3.85541 7.71083,-1.28514 1.28513,2.57027 1.28514,0 2.57028,1.28514 2.57027,0 1.28514,-5.14055 7.71082,-26.98788 6.42569,-14.13651 2.57027,0 3.85542,0 3.85541,8.99596 6.42568,24.41761 5.14055,33.41357 7.71083,66.82714 1.28513,25.70274 1.28514,19.27706 0,8.99596 0,2.57028 0,1.28513 40,-65.542 48.67447,-196.626 29.55816,-28.27302 14.13651,-29.55816 0,2.57028 0,5.14054 0,11.56624 0,19.27706 0,29.55816 3.85541,42.40953 7.71083,80.96365 5.14054,29.55815 0,21.84734 0,12.85137 0,5.14055 0,1.28514 5.14055,7.71082 3.85542,6.42569 5.14054,2.57027 11.56624,3.85541 10.2811,-15.42165 6.42568,-24.4176 8.99597,-25.70275 19.27705,-48.83522 17.99193,-26.98788 23.13247,24.41761 2.57027,24.41761 0,5.14055 0,2.57027 0,1.28514 1.28514,0 1.28514,0 6.42568,0 3.85541,0 3.85542,5.14055 6.42568,0 1.28514,0 2.57027,-7.71083 1.28514,0 2.57028,0 2.57027,0 3.85541,3.85542 6.42569,6.42568 2.57027,2.57028 1.28514,0 1.28514,0 0,-1.28514 1.28514,0 0,-1.28514 1.28513,-19.27706 5.14055,-26.98788 8.99596,-12.85137 3.85541,-3.85541 2.57028,-2.57028 2.57027,-1.28514 2.57028,-1.28513 1.28514,0 1.28513,-1.28514 1.28514,3.85541 6.42569,20.5622 14.13651,52.69063 3.85541,25.70274 3.85541,20.5622 2.57027,15.42165 3.85542,12.85137 1.28513,10.2811 17.99193,-1.28514 21.84733,-14.13651 7.71082,-10.2811 6.42569,-8.99596 6.42569,-21.84733 3.85541,-10.2811 8.99596,-20.5622 3.85541,-3.85541 2.57028,0 2.57027,0 6.42569,0 1.28513,1.28514 2.57028,2.57027 7.71082,14.13651 7.71083,8.99596 5.14054,6.42569 3.85542,2.57027 0,1.28514 1.28513,0 1.28514,0 1.28514,-7.71082 0,-8.99596 0,-7.71083 3.85541,-5.14055 2.57027,0 2.57028,2.57028 2.57027,1.28514 1.28514,1.28513 3.85541,0 3.85541,-5.14055 2.57028,-3.85541 1.28514,0 2.57027,0 3.85541,0 1.28514,2.57028 5.14055,5.14055 1.28514,2.57027 2.57027,1.28514 0,1.28513 2.57028,5.14055 0,6.42569 0,1.28514 1.28513,-3.85541 1.28514,0 7.71082,1.28513 6.42569,5.14055 10.2811,8.99596 12.85137,10.2811 12.85137,12.85137 3.85542,2.57028 2.57027,2.57027 5.14055,-3.85541 6.42569,-5.14055 11.56623,-8.99596 8.99596,-8.99596 7.71083,-5.14055 6.42568,-5.14055 3.85541,-1.28514 2.57028,-1.28513 2.57027,0 3.85541,-3.85541 0,-2.57028 2.57028,-2.57027 2.57027,-5.14055 1.28514,-1.28514 0,-1.28514 1.28514,0 2.57027,0 2.57028,0 14.13651,20.5622 10.2811,12.85137 14.13651,23.13247 6.42568,8.99596 5.14055,7.71083 3.85541,5.14055 1.28514,1.28513 0,-1.28513 0,-3.85542 0,-2.57027 1.2851,0 1.2852,1.28514 3.8554,0 1.2851,-2.57028 1.2852,0 1.2851,-1.28513 3.8554,0 0,-1.28514 1.2851,0 1.2852,-1.28514 1.2851,-1.28514 0,-1.28513 2.5703,-1.28514 0,-1.28514 0,-1.28514 0,-10.28109 1.2851,-3.85542 0,-6.42568 0,-5.14055 0,-1.28514 6.4257,0 7.7108,1.28514 17.992,12.85137 2.5702,2.57028 1.2852,1.28513 0,1.28514 0,1.28514"
       id="path2985"
       inkscape:connector-curvature="0"
       transform="translate(0,308.2677)"
       sodipodi:nodetypes="cccccccccccccccccccccccccccccccccccccccccccccccccccccccccccccccccccccccccccccccccccccccccccccccccccccccccccccccccccccccccccccccccccccccccccccccccccccccccccccccccccccccccccccccccccccccccccccccccccccccccccccccccccccccc" />
    <path
       sodipodi:nodetypes="cccccccccccccccccccccccccccccccccccccccccccccccccccccccccccccccccccccccccccccccccccccccccccccccccccccccccccccccccccccccccccccccccccccccccccccccccccccccccccccccccccccccccccccccccccccccccccccccccccccccccccccc"
       inkscape:connector-curvature="0"
       id="path3793"
       d="m 1077.668,978.06575 -10.2811,-11.56624 -7.7108,-7.71082 -41.1244,-28.27302 -25.70276,-1.28514 -10.2811,24.41761 -5.14055,15.42165 -3.85541,10.28109 -2.57028,12.85138 0,2.57027 -5.14054,-16.70678 -6.42569,-24.41761 -7.71082,-26.98788 -3.85542,-19.27706 -8.99596,-21.84734 -1.28513,-3.85541 -1.28514,0 -1.28514,0 -2.57027,6.42569 -1.28514,2.57027 0,1.28514 -1.28514,0 -1.28514,0 -7.71082,-8.99596 -2.57027,-3.85541 -7.71083,-1.28514 -1.28513,2.57027 -1.28514,0 -2.57028,1.28514 -2.57027,0 -1.28514,-5.14055 -7.71082,-26.98788 -6.42569,-14.13651 -2.57027,0 -3.85542,0 -3.85541,8.99596 -6.42568,24.41761 -5.14055,33.41357 -7.71083,66.82714 -1.28513,25.70274 -1.28514,19.27707 0,8.9959 0,2.5703 0,1.2852 -40,-65.54204 -48.67447,-196.626 -29.55816,71.72698 -14.13651,-29.55816 0,2.57028 0,5.14054 0,11.56624 0,19.27706 0,29.55816 -3.85541,-57.59047 -7.71083,80.96365 -5.14054,29.55815 0,21.84734 0,12.85137 0,5.14055 0,1.28514 -5.14055,7.71082 -3.85542,6.42569 -5.14054,2.57027 -11.56624,3.85541 -10.2811,-15.42165 -6.42568,-24.4176 -8.99597,-25.70275 -19.27705,11.16478 -17.99193,-26.98788 -23.13247,24.41761 -2.57027,24.41761 0,5.14055 0,2.57027 0,1.28514 -1.28514,0 -1.28514,0 -6.42568,0 -3.85541,0 -3.85542,5.14055 -6.42568,0 -1.28514,0 -2.57027,-7.71083 -1.28514,0 -2.57028,0 -2.57027,0 -3.85541,3.85542 -6.42569,6.42568 -2.57027,2.57028 -1.28514,0 -1.28514,0 0,-1.28514 -1.28514,0 0,-1.28514 -1.28513,-19.27706 -5.14055,-26.98788 -8.99596,-12.85137 -3.85541,-3.85541 -2.57028,-2.57028 -2.57027,-1.28514 -2.57028,-1.28513 -1.28514,0 -1.28513,-1.28514 -1.28514,3.85541 -6.42569,20.5622 -14.13651,-7.30937 -3.85541,25.70274 -3.85541,20.5622 -2.57027,15.42165 -3.85542,12.85137 -1.28513,10.28113 -17.99193,-1.2852 -21.84733,-14.13648 -7.71082,-10.2811 -6.42569,-8.99596 -6.42569,-21.84733 -3.85541,-10.2811 -8.99596,-20.5622 -3.85541,-3.85541 -2.57028,0 -2.57027,0 -6.42569,0 -1.28513,1.28514 -2.57028,2.57027 -7.71082,14.13651 -7.71083,8.99596 -5.14054,6.42569 -3.85542,2.57027 0,1.28514 -1.28513,0 -1.28514,0 -1.28514,-7.71082 0,-8.99596 0,-7.71083 -3.85541,-5.14055 -2.57027,0 -2.57028,2.57028 -2.57027,1.28514 -1.28514,1.28513 -3.85541,0 -3.85541,-5.14055 -2.57028,-3.85541 -1.28514,0 -2.57027,0 c -8.93754,0.28476 -16.70679,15.83144 -16.70679,24.41761 l 0,1.28514 c -2.27156,-9.3266 -12.21824,-1.02056 -16.70678,2.57027 l -10.2811,8.99596 -12.85137,10.2811 -12.85137,12.85137 -3.85542,2.57028 -2.57027,2.57027 -5.14055,-3.85541 -6.42569,-45.14055 -11.56623,-8.99596 -8.99596,-8.99596 -7.71083,-5.14055 -6.42568,-5.14055 -3.85541,-1.28514 -2.57028,-1.28513 -2.57027,40 -3.85541,-3.85541 0,-2.57028 -2.57028,-2.57027 -2.57027,-5.14055 -1.28514,-1.28514 0,-1.28514 -1.28514,0 -2.57027,0 -2.57028,0 -14.13651,20.5622 -10.2811,12.85137 -14.13649,23.13247 -6.4257,8.99596 -5.1406,7.71081 -3.8554,5.1406 -1.2851,1.2851 0,-1.2851 0,-3.8554 0,-2.57032 -1.2851,0 -1.2852,1.28512 -3.8554,0 -1.2851,-2.57026 -1.2852,0 -1.2851,-1.28513 -3.8554,0 0,-1.28514 -1.2851,0 -1.2852,-1.28514 -1.2851,-1.28514 0,-1.28513 -2.5703,-1.28514 0,-1.28514 0,-1.28514 0,-10.28109 -1.2851,-3.85542 0,-6.42568 0,-5.14055 0,-1.28514 -6.425698,0 -7.7108,1.28514 -17.992,12.85137 -2.5702,2.57028 -1.2852,1.28513 0,1.28514 0,1.28514"
       style="fill:none;stroke:#999999;stroke-width:3;stroke-linecap:square;stroke-linejoin:miter;stroke-miterlimit:4;stroke-opacity:1;stroke-dasharray:none" />
  </g>
</svg>
