<?xml version="1.0" encoding="UTF-8" standalone="no"?>
<svg
   xmlns:dc="http://purl.org/dc/elements/1.1/"
   xmlns:cc="http://creativecommons.org/ns#"
   xmlns:rdf="http://www.w3.org/1999/02/22-rdf-syntax-ns#"
   xmlns:svg="http://www.w3.org/2000/svg"
   xmlns="http://www.w3.org/2000/svg"
   xmlns:sodipodi="http://sodipodi.sourceforge.net/DTD/sodipodi-0.dtd"
   xmlns:inkscape="http://www.inkscape.org/namespaces/inkscape"
   version="1.1"
   width="810"
   height="255"
   id="svg2"
   inkscape:version="0.48.1 r9760"
   sodipodi:docname="CC-by-nc-sa_light.svg">
  <metadata
     id="metadata20">
    <rdf:RDF>
      <cc:Work
         rdf:about="">
        <dc:format>image/svg+xml</dc:format>
        <dc:type
           rdf:resource="http://purl.org/dc/dcmitype/StillImage" />
      </cc:Work>
    </rdf:RDF>
  </metadata>
  <defs
     id="defs18" />
  <sodipodi:namedview
     pagecolor="#ffffff"
     bordercolor="#666666"
     borderopacity="1"
     objecttolerance="10"
     gridtolerance="10"
     guidetolerance="10"
     inkscape:pageopacity="0"
     inkscape:pageshadow="2"
     inkscape:window-width="1366"
     inkscape:window-height="744"
     id="namedview16"
     showgrid="false"
     inkscape:zoom="0.63951936"
     inkscape:cx="729.25842"
     inkscape:cy="38.67947"
     inkscape:window-x="0"
     inkscape:window-y="24"
     inkscape:window-maximized="1"
     inkscape:current-layer="svg2"
     fit-margin-top="0"
     fit-margin-left="0"
     fit-margin-right="0"
     fit-margin-bottom="0" />
  <g
     id="g3792">
    <path
       sodipodi:nodetypes="ccssccc"
       style="fill:#166598"
       inkscape:connector-curvature="0"
       id="path4"
       d="m 215.043,214.94207 0,-175.774164 550.86569,0 c 22.43248,0 40.68168,18.202078 40.68168,40.576645 l 0,94.623919 c -9.2e-4,22.37456 -18.2492,40.5736 -29.46493,40.5736 z" />
    <g
       transform="translate(-4.715,-1.4540059)"
       id="g8">
      <path
         style="fill:#ffffff"
         inkscape:connector-curvature="0"
         id="path10"
         d="m 132.104,245.277 c -64.082,0 -116.215,-52.133 -116.215,-116.214 0,-64.083 52.133,-116.215 116.215,-116.215 64.083,0 116.216,52.133 116.216,116.215 0.001,64.082 -52.132,116.214 -116.216,116.214 l 0,0 z" />
      <path
         inkscape:connector-curvature="0"
         id="path12"
         d="m 132.104,24.022 c 58.013,0 105.041,47.028 105.041,105.04 0,58.012 -47.028,105.04 -105.041,105.04 -58.012,0 -105.039,-47.027 -105.039,-105.04 C 27.064,71.051 74.092,24.022 132.104,24.022 m 0,-22.349 c -34.026,0 -66.016,13.251 -90.077,37.312 -24.06,24.06 -37.312,56.05 -37.312,90.078 0,34.028 13.251,66.018 37.312,90.078 24.061,24.062 56.051,37.313 90.077,37.313 34.027,0 66.018,-13.251 90.079,-37.313 24.061,-24.062 37.312,-56.052 37.312,-90.078 0,-34.027 -13.251,-66.017 -37.312,-90.078 C 198.122,14.924 166.132,1.673 132.104,1.673 l 0,0 z" />
    </g>
    <text
       sodipodi:linespacing="125%"
       id="text2997"
       y="176.23492"
       x="34.376858"
       style="font-size:24px;font-style:normal;font-variant:normal;font-weight:bold;font-stretch:normal;line-height:125%;letter-spacing:0px;word-spacing:0px;fill:#000000;fill-opacity:1;stroke:none;font-family:Arial;-inkscape-font-specification:Arial"
       xml:space="preserve"><tspan
         style="font-size:130px;font-style:normal;font-variant:normal;font-weight:bold;font-stretch:normal;font-family:Arial;-inkscape-font-specification:Arial Bold"
         y="176.23492"
         x="34.376858"
         id="tspan2999"
         sodipodi:role="line">CC</tspan></text>
    <text
       sodipodi:linespacing="88.999999%"
       id="text2997-0"
       y="116.50149"
       x="262.83414"
       style="font-size:24px;font-style:normal;font-variant:normal;font-weight:bold;font-stretch:normal;line-height:88.99999857%;letter-spacing:0px;word-spacing:0px;fill:#eeeeee;fill-opacity:1;stroke:none;font-family:Arial;-inkscape-font-specification:Arial"
       xml:space="preserve"><tspan
         dy="0"
         style="font-size:80px;font-style:normal;font-variant:normal;font-weight:bold;font-stretch:normal;line-height:88.99999857%;letter-spacing:-4.85000134px;fill:#eeeeee;font-family:Arial;-inkscape-font-specification:Arial Bold"
         y="116.50149"
         x="262.83414"
         id="tspan2999-9"
         sodipodi:role="line">SOME RIGHTS</tspan><tspan
         id="tspan3790"
         style="font-size:90px;font-style:normal;font-variant:normal;font-weight:bold;font-stretch:normal;line-height:88.99999857%;letter-spacing:-4.85000134px;fill:#eeeeee;font-family:Arial;-inkscape-font-specification:Arial Bold"
         y="194.70811"
         x="262.83414"
         sodipodi:role="line">RESERVED</tspan></text>
  </g>
</svg>
