<?xml version="1.0" encoding="UTF-8" standalone="no"?>
<svg
   xmlns:dc="http://purl.org/dc/elements/1.1/"
   xmlns:cc="http://creativecommons.org/ns#"
   xmlns:rdf="http://www.w3.org/1999/02/22-rdf-syntax-ns#"
   xmlns:svg="http://www.w3.org/2000/svg"
   xmlns="http://www.w3.org/2000/svg"
   xmlns:sodipodi="http://sodipodi.sourceforge.net/DTD/sodipodi-0.dtd"
   xmlns:inkscape="http://www.inkscape.org/namespaces/inkscape"
   version="1.1"
   width="810"
   height="255"
   id="svg2"
   inkscape:version="0.48.1 r9760"
   sodipodi:docname="CC-by-nc-sa_light.svg">
  <metadata
     id="metadata20">
    <rdf:RDF>
      <cc:Work
         rdf:about="">
        <dc:format>image/svg+xml</dc:format>
        <dc:type
           rdf:resource="http://purl.org/dc/dcmitype/StillImage" />
      </cc:Work>
    </rdf:RDF>
  </metadata>
  <defs
     id="defs18" />
  <sodipodi:namedview
     pagecolor="#ffffff"
     bordercolor="#666666"
     borderopacity="1"
     objecttolerance="10"
     gridtolerance="10"
     guidetolerance="10"
     inkscape:pageopacity="0"
     inkscape:pageshadow="2"
     inkscape:window-width="1366"
     inkscape:window-height="744"
     id="namedview16"
     showgrid="false"
     inkscape:zoom="0.63951936"
     inkscape:cx="536.92648"
     inkscape:cy="38.67947"
     inkscape:window-x="0"
     inkscape:window-y="24"
     inkscape:window-maximized="1"
     inkscape:current-layer="svg2"
     fit-margin-top="0"
     fit-margin-left="0"
     fit-margin-right="0"
     fit-margin-bottom="0" />
  <g
     id="g3792">
    <path
       sodipodi:nodetypes="ccssccc"
       style="fill:#166598"
       inkscape:connector-curvature="0"
       id="path4"
       d="m 215.043,214.94207 0,-175.774164 550.86569,0 c 22.43248,0 40.68168,18.202078 40.68168,40.576645 l 0,94.623919 c -9.2e-4,22.37456 -18.2492,40.5736 -29.46493,40.5736 z" />
    <g
       transform="translate(-4.715,-1.4540059)"
       id="g8">
      <path
         style="fill:#ffffff"
         inkscape:connector-curvature="0"
         id="path10"
         d="m 132.104,245.277 c -64.082,0 -116.215,-52.133 -116.215,-116.214 0,-64.083 52.133,-116.215 116.215,-116.215 64.083,0 116.216,52.133 116.216,116.215 0.001,64.082 -52.132,116.214 -116.216,116.214 l 0,0 z" />
      <path
         d="M 129.05903,4.4087286 C 81.354775,4.9273225 36.083188,35.371313 16.952043,78.95434 -3.0338523,122.44995 4.7532581,177.18812 36.550833,212.9638 c 28.027104,33.37234 74.398317,49.9506 117.449427,42.01591 50.09645,-8.07889 92.31113,-49.20382 101.94193,-99.01345 9.1125,-42.9812 -6.21426,-89.915801 -39.00952,-118.99367 C 193.26469,15.380541 161.25126,3.429517 129.05903,4.4087286 z m 1.85992,25.6730074 c 40.08662,-1.00903 78.77409,24.396727 93.91076,61.40788 15.54195,35.471584 7.65537,79.685274 -19.02608,107.631484 -24.55558,27.01118 -64.73286,38.43885 -99.94788,28.53912 C 67.813659,217.76655 37.680935,183.71045 32.648048,144.66506 26.894892,107.01658 44.938172,67.218726 76.840054,46.695131 92.864312,36.037445 111.72724,30.310145 130.91895,30.081736 z"
         id="path12"
         inkscape:connector-curvature="0" />
    </g>
    <path
       style="font-size:24px;font-style:normal;font-variant:normal;font-weight:bold;font-stretch:normal;line-height:125%;letter-spacing:-7.28000021px;word-spacing:0px;fill:#000000;fill-opacity:1;stroke:none;font-family:Arial;-inkscape-font-specification:Arial"
       d="m 81.519224,79.65625 c -18.870536,-0.04334 -36.296453,13.830384 -40.625,32 -5.245645,20.06428 -2.905556,44.94879 14.21875,58.78125 15.277569,12.38095 39.685448,12.79217 55.031256,0.5625 7.31294,-6.17285 11.53271,-15.29203 13.875,-24.5 -7.37454,-2.34517 -14.75673,-4.66649 -22.125,-7.03125 -1.32149,9.95641 -8.123103,20.85722 -19.187506,20.28125 -11.059777,0.72739 -19.565059,-9.6079 -20.125,-20.03125 -1.202934,-12.31947 -2.309003,-28.28922 8.8125,-36.59375 9.764359,-7.202801 26.611024,-3.02555 29.156256,9.8125 1.4473,5.69307 10.48641,-1.01182 15.26507,-0.75662 4.59407,-0.80634 10.05302,-1.2431 6.54743,-6.68088 C 117.32243,87.756359 99.273858,78.284287 81.519224,79.65625 z m 92.687506,0 c -19.31088,-0.0491 -36.9538,14.402185 -41,33.21875 -4.94233,20.50739 -1.94381,45.74506 16.25,58.875 15.72049,11.28709 39.91167,11.145 54.53125,-1.8125 6.6603,-6.15976 10.46736,-14.76061 12.6875,-23.4375 -7.38592,-2.34215 -14.77177,-4.68457 -22.15625,-7.03125 -1.27596,9.90424 -8.01007,20.88524 -19.15625,20.28125 -10.67118,0.65538 -19.16084,-8.88831 -20,-19.15625 -1.24395,-12.29486 -2.62698,-27.9305 7.84375,-36.84375 9.36769,-7.741744 26.60722,-4.403342 29.78125,8.375 0.61294,7.06141 9.76186,0.0337 14.51151,0.28957 4.13656,-1.24256 11.41476,-0.7654 7.64101,-6.55075 -4.90278,-17.961657 -23.08321,-27.594453 -40.93377,-26.20757 z"
       id="text2997"
       inkscape:connector-curvature="0"
       sodipodi:nodetypes="cccccccccccccccccccccccccc" />
    <text
       sodipodi:linespacing="88.999999%"
       id="text2997-0"
       y="116.50149"
       x="262.83414"
       style="font-size:24px;font-style:normal;font-variant:normal;font-weight:bold;font-stretch:normal;line-height:88.99999856999998826%;letter-spacing:0px;word-spacing:0px;fill:#ffffff;fill-opacity:1;stroke:none;font-family:Arial;-inkscape-font-specification:Arial"
       xml:space="preserve"><tspan
         dy="0"
         style="font-size:80px;font-style:normal;font-variant:normal;font-weight:bold;font-stretch:normal;line-height:88.99999856999998826%;letter-spacing:-4.85000134000000038px;fill:#ffffff;font-family:Arial;-inkscape-font-specification:Arial Bold;fill-opacity:1"
         y="116.50149"
         x="262.83414"
         id="tspan2999-9"
         sodipodi:role="line">SOME RIGHTS</tspan><tspan
         id="tspan3790"
         style="font-size:90px;font-style:normal;font-variant:normal;font-weight:bold;font-stretch:normal;line-height:88.99999856999998826%;letter-spacing:-4.85000134000000038px;fill:#ffffff;font-family:Arial;-inkscape-font-specification:Arial Bold;fill-opacity:1"
         y="194.70811"
         x="262.83414"
         sodipodi:role="line">RESERVED</tspan></text>
  </g>
</svg>
