<?xml version="1.0" encoding="UTF-8" standalone="no"?>
<!-- Created with Inkscape (http://www.inkscape.org/) -->

<svg
   xmlns:dc="http://purl.org/dc/elements/1.1/"
   xmlns:cc="http://creativecommons.org/ns#"
   xmlns:rdf="http://www.w3.org/1999/02/22-rdf-syntax-ns#"
   xmlns:svg="http://www.w3.org/2000/svg"
   xmlns="http://www.w3.org/2000/svg"
   xmlns:sodipodi="http://sodipodi.sourceforge.net/DTD/sodipodi-0.dtd"
   xmlns:inkscape="http://www.inkscape.org/namespaces/inkscape"
   width="120"
   height="42"
   id="svg2759"
   sodipodi:version="0.32"
   inkscape:version="0.48.1 r9760"
   version="1.0"
   sodipodi:docname="CC-by-nc-sa.eu.svg"
   inkscape:output_extension="org.inkscape.output.svg.inkscape">
  <defs
     id="defs2761" />
  <sodipodi:namedview
     id="base"
     pagecolor="#ffffff"
     bordercolor="#8b8b8b"
     borderopacity="1"
     gridtolerance="10000"
     guidetolerance="10"
     objecttolerance="10"
     inkscape:pageopacity="0.0"
     inkscape:pageshadow="2"
     inkscape:zoom="10.041667"
     inkscape:cx="60"
     inkscape:cy="27.330559"
     inkscape:document-units="px"
     inkscape:current-layer="g2630"
     width="120px"
     height="42px"
     inkscape:showpageshadow="false"
     inkscape:window-width="1366"
     inkscape:window-height="744"
     inkscape:window-x="0"
     inkscape:window-y="24"
     showgrid="false"
     showguides="true"
     inkscape:guide-bbox="true"
     inkscape:window-maximized="1" />
  <metadata
     id="metadata2764">
    <rdf:RDF>
      <cc:Work
         rdf:about="">
        <dc:format>image/svg+xml</dc:format>
        <dc:type
           rdf:resource="http://purl.org/dc/dcmitype/StillImage" />
      </cc:Work>
    </rdf:RDF>
  </metadata>
  <g
     inkscape:label="Layer 1"
     inkscape:groupmode="layer"
     id="layer1">
    <g
       id="g2630">
      <path
         id="path3817_5_"
         nodetypes="ccccccc"
         d="M 3.4083297,0.452685 116.76243,0.654042 c 1.58383,0 2.99881,-0.234834 2.99881,3.160525 l -0.13878,37.329077 -119.07512582,0 0,-37.467843 c 0,-1.674393 0.16206577,-3.223116 2.86099552,-3.223116 z"
         style="fill:#000000"
         inkscape:connector-curvature="0" />
      <g
         transform="translate(4.972327e-4,9.6235539e-3)"
         id="g2366"
         style="fill:#000000">
        <path
           style="fill:#000000"
           d="M 104 4.375 C 98.154746 4.3793597 93.402523 9.1236598 93.40625 14.96875 L 93.40625 15 C 93.411175 20.846531 98.153759 25.565605 104 25.5625 C 109.84617 25.55814 114.59872 20.81384 114.59375 14.96875 C 114.5889 9.1241505 109.84624 4.3706527 104 4.375 z M 51.75 4.5 C 45.819045 4.5 41.03125 9.2884582 41.03125 15.21875 C 41.03125 21.149042 45.819045 25.96875 51.75 25.96875 C 57.680955 25.96875 62.5 21.149042 62.5 15.21875 C 62.5 9.2884582 57.680955 4.5 51.75 4.5 z M 77.84375 5.03125 C 72.343071 5.035625 67.8711 9.498923 67.875 15 C 67.878863 20.499653 72.343036 24.97215 77.84375 24.96875 C 83.345398 24.964363 87.8173 20.500587 87.8125 15 L 87.8125 14.96875 C 87.808602 9.469131 83.34443 5.02785 77.84375 5.03125 z M 20.875 5.90625 C 13.344961 5.911116 7.2448 12.032825 7.25 19.5625 C 7.2548146 27.091698 13.376263 33.1924 20.90625 33.1875 C 28.43629 33.18266 34.53645 27.092175 34.53125 19.5625 L 34.53125 19.53125 C 34.527337 12.002052 28.405994 5.90195 20.875 5.90625 z "
           transform="translate(-4.972327e-4,-0.00962355)"
           id="path6372_1_" />
        <g
           id="g3018"
           style="fill:#000000" />
      </g>
      <g
         transform="matrix(0.8674921,0,0,0.8673951,-638.54905,153.79964)"
         id="g5706_5_" />
      <g
         id="g6332_1_"
         transform="matrix(0.621108,0,0,0.6210385,-285.77182,240.48957)">
        <g
           id="g6336_1_"
           transform="translate(-23.9521,-89.72962)" />
      </g>
      <g
         transform="matrix(0.9937808,0,0,0.9936696,-437.12334,-74.436914)"
         id="g126">
        <g
           id="g130">
          <path
             style="fill:#336699"
             d="M 2.25 0 C 1.0106858 0 -1.4456029e-19 1.0113113 0 2.25 L 0 41.5 C 0 41.779957 0.21953518 42 0.5 42 L 119.5 42 C 119.78048 42 120 41.779947 120 41.5 L 120 2.25 C 120 1.0113113 118.98834 0 117.75 0 L 2.25 0 z M 2.25 1 L 117.75 1 C 118.42933 1 119 1.5707275 119 2.25 L 119 29.46875 L 36.4375 29.46875 C 33.411517 34.939756 27.56555 38.65625 20.875 38.65625 C 14.182503 38.65625 8.3677951 34.943154 5.34375 29.46875 L 1 29.46875 L 1 2.25 C 0.9999901 1.5707275 1.5706514 1 2.25 1 z M 103.90625 3.375 C 100.69395 3.375 97.974374 4.5093862 95.75 6.75 C 93.46649 9.069231 92.34375 11.799497 92.34375 14.96875 C 92.34375 18.138003 93.46649 20.875381 95.75 23.15625 C 98.032603 25.436666 100.75218 26.5625 103.90625 26.5625 C 107.09921 26.5625 109.87701 25.423836 112.21875 23.125 C 114.4247 20.940677 115.53125 18.215142 115.53125 14.96875 C 115.53125 11.722321 114.40201 8.9920546 112.15625 6.75 C 109.91156 4.5093925 107.15743 3.375 103.90625 3.375 z M 51.75 3.40625 C 48.538647 3.40625 45.819084 4.5084205 43.59375 6.75 C 41.310191 9.068728 40.15625 11.831217 40.15625 15 C 40.15625 18.168783 41.310191 20.875371 43.59375 23.15625 C 45.877309 25.435678 48.596883 26.59375 51.75 26.59375 C 54.942908 26.59375 57.689465 25.425286 60.03125 23.125 C 62.237175 20.94164 63.34375 18.246895 63.34375 15 C 63.34375 11.753105 62.213492 8.9915795 59.96875 6.75 C 57.724008 4.5084205 55.002108 3.40625 51.75 3.40625 z M 77.8125 3.40625 C 74.59982 3.40625 71.88155 4.507708 69.65625 6.75 C 67.3722 9.069442 66.25 11.829792 66.25 15 C 66.25 18.169502 67.3722 20.876447 69.65625 23.15625 C 71.93959 25.43747 74.65786 26.59375 77.8125 26.59375 C 81.00536 26.59375 83.78362 25.424623 86.125 23.125 C 88.3312 20.940748 89.4375 18.246655 89.4375 15 C 89.4375 11.752639 88.30762 8.991582 86.0625 6.75 C 83.81738 4.507708 81.0634 3.40625 77.8125 3.40625 z M 20.875 3.90625 C 16.548557 3.90625 12.87183 5.4133183 9.875 8.4375 C 6.7985347 11.565509 5.28125 15.287465 5.28125 19.5625 C 5.28125 23.838489 6.7985347 27.487359 9.875 30.5625 C 12.949453 33.639072 16.626171 35.1875 20.875 35.1875 C 25.176243 35.1875 28.90842 33.633072 32.0625 30.53125 C 35.034129 27.585654 36.5 23.942307 36.5 19.5625 C 36.5 15.18317 34.991839 11.460728 31.96875 8.4375 C 28.944707 5.4133183 25.25482 3.90625 20.875 3.90625 z M 51.78125 5.46875 C 54.413219 5.46875 56.630643 6.3946301 58.46875 8.25 C 60.327239 10.085477 61.25 12.352805 61.25 15 C 61.25 17.666602 60.350912 19.866185 58.53125 21.625 C 56.615509 23.518696 54.373428 24.46875 51.78125 24.46875 C 49.187134 24.46875 46.939424 23.531026 45.0625 21.65625 C 43.185576 19.781961 42.25 17.570534 42.25 15 C 42.25 12.429466 43.197417 10.163102 45.09375 8.25 C 46.913432 6.39464 49.149281 5.46875 51.78125 5.46875 z M 77.84375 5.46875 C 80.47533 5.46875 82.72365 6.394164 84.5625 8.25 C 86.41975 10.086019 87.34375 12.351431 87.34375 15 C 87.34375 15.872709 87.25785 16.693009 87.0625 17.46875 L 80.6875 14.65625 L 80.875 14.65625 L 80.875 13.25 L 77.5625 13.25 L 76.25 12.6875 C 76.36501 12.429155 76.49771 12.18084 76.65625 12 C 77.25823 11.261063 78.09909 10.96875 79.03125 10.96875 C 79.88556 10.96875 80.68284 11.192494 81.1875 11.40625 L 81.71875 9.21875 C 81.01945 8.908735 79.99664 8.625 78.8125 8.625 C 76.98781 8.625 75.45039 9.3515716 74.34375 10.59375 C 74.09815 10.877574 73.88073 11.194339 73.6875 11.53125 L 69.875 9.84375 C 70.24447 9.289546 70.68426 8.757488 71.1875 8.25 C 73.00724 6.394164 75.21147 5.46875 77.84375 5.46875 z M 103.9375 5.46875 C 106.56948 5.46875 108.81719 6.3941258 110.65625 8.25 C 112.51381 10.085442 113.4375 12.320083 113.4375 14.96875 C 113.4375 17.63534 112.53848 19.865213 110.71875 21.625 C 108.80402 23.518211 106.52967 24.46875 103.9375 24.46875 C 101.34434 24.46875 99.12697 23.530544 97.25 21.65625 C 95.373105 19.781496 94.4375 17.53929 94.4375 14.96875 C 94.4375 12.39821 95.383958 10.162625 97.28125 8.25 C 99.099997 6.3941258 101.30552 5.46875 103.9375 5.46875 z M 20.90625 6.71875 C 24.452462 6.71875 27.478519 7.978797 29.96875 10.46875 C 32.46004 12.959276 33.71875 15.991009 33.71875 19.5625 C 33.71875 23.161635 32.482722 26.126417 30.03125 28.5 C 27.448787 31.055467 24.400994 32.34375 20.90625 32.34375 C 17.411506 32.34375 14.405995 31.092258 11.875 28.5625 C 9.3459049 26.033688 8.09375 23.031126 8.09375 19.5625 C 8.09375 16.093874 9.3499416 13.050447 11.90625 10.46875 C 14.356664 7.9656733 17.360038 6.71875 20.90625 6.71875 z M 51.75 7.5 C 50.854107 7.5 50.125 8.2292019 50.125 9.125 C 50.125 10.020798 50.854107 10.75 51.75 10.75 C 52.645903 10.75 53.375 10.020798 53.375 9.125 C 53.375 8.2292019 52.645903 7.5 51.75 7.5 z M 103.875 8.875 C 101.30027 8.875 99.243211 10.425807 98.78125 13.34375 L 97.875 13.34375 L 100.15625 15.625 L 102.46875 13.34375 L 101.625 13.34375 C 101.85693 11.75522 102.94644 11.28125 104.21875 11.28125 C 105.955 11.28125 106.875 12.606473 106.875 15.0625 C 106.875 17.402089 105.80417 18.90625 104.15625 18.90625 C 102.71024 18.90625 101.71234 18.371921 101.625 16.8125 L 98.6875 16.8125 C 99.09222 19.816786 101.32519 21.34375 103.8125 21.34375 C 107.42762 21.34375 109.8125 18.62031 109.8125 15.125 C 109.8125 11.543341 107.5764 8.875 103.875 8.875 z M 49.375 11.375 C 48.961567 11.375 48.625 11.711127 48.625 12.125 L 48.625 16.875 L 49.9375 16.875 L 49.9375 22.46875 L 53.5625 22.46875 L 53.5625 16.875 L 54.875 16.875 L 54.875 12.125 C 54.875 11.711137 54.538433 11.375 54.125 11.375 L 49.375 11.375 z M 68.84375 11.90625 L 71.90625 13.25 L 71.6875 13.25 L 71.6875 14.65625 L 72.78125 14.65625 C 72.78125 14.850894 72.75 15.024817 72.75 15.21875 L 72.75 15.5625 L 71.6875 15.5625 L 71.6875 16.9375 L 72.96875 16.9375 C 73.14357 17.966632 73.50713 18.80838 74.03125 19.46875 C 75.11842 20.905571 76.87869 21.65625 78.78125 21.65625 C 80.02413 21.65625 81.15213 21.306968 81.8125 20.9375 L 81.34375 18.78125 C 80.93606 18.995002 80.01824 19.28125 79.125 19.28125 C 78.15391 19.28125 77.24644 18.980552 76.625 18.28125 C 76.33374 17.951417 76.13554 17.520014 76 16.9375 L 80.21875 16.9375 L 86.21875 19.59375 C 85.80328 20.329864 85.2691 21.002141 84.625 21.625 C 82.709 23.519056 80.4364 24.46875 77.84375 24.46875 C 75.25039 24.46875 73.03332 23.531198 71.15625 21.65625 C 69.27918 19.781302 68.34375 17.570002 68.34375 15 C 68.34375 13.912828 68.50436 12.875221 68.84375 11.90625 z M 16.5625 14.6875 C 15.261054 14.6875 14.183913 15.125197 13.3125 16 C 12.440983 16.874751 12 18.074891 12 19.5625 C 12 21.076261 12.435046 22.263321 13.28125 23.125 C 14.126508 23.986202 15.250913 24.40625 16.65625 24.40625 C 18.477853 24.40625 19.838769 23.586858 20.75 21.96875 L 18.84375 20.96875 C 18.45363 21.874163 17.785381 22.3125 16.875 22.3125 C 15.496885 22.3125 14.8125 21.387068 14.8125 19.53125 C 14.8125 17.675857 15.496885 16.75 16.875 16.75 C 17.655344 16.75 18.26613 17.179737 18.65625 18.03125 L 20.71875 16.96875 C 19.884084 15.452561 18.488836 14.6875 16.5625 14.6875 z M 25.625 14.6875 C 24.299299 14.6875 23.20065 15.125197 22.34375 16 C 21.485792 16.874751 21.0625 18.074891 21.0625 19.5625 C 21.0625 21.076261 21.46915 22.263321 22.3125 23.125 C 23.157854 23.986202 24.284175 24.40625 25.6875 24.40625 C 27.506249 24.40625 28.871927 23.586858 29.78125 21.96875 L 27.84375 20.96875 C 27.479785 21.874163 26.818539 22.3125 25.90625 22.3125 C 24.500071 22.3125 23.8125 21.387068 23.8125 19.53125 C 23.8125 17.675857 24.500071 16.75 25.90625 16.75 C 26.66128 16.75 27.233926 17.179737 27.625 18.03125 L 29.75 16.96875 C 28.919255 15.452561 27.547527 14.6875 25.625 14.6875 z "
             transform="matrix(1.0062581,0,0,1.0063707,439.85891,74.911131)"
             id="circle134" />
        </g>
      </g>
      <g
         transform="matrix(0.9937808,0,0,0.9936696,-437.12334,-74.436914)"
         enable-background="new    "
         id="g138">
        <path
           style="fill:#000000"
           d="M 80.90625 32.59375 C 80.398686 32.59375 79.936911 32.664234 79.53125 32.84375 C 79.126553 33.023266 78.809787 33.278379 78.53125 33.59375 C 78.252713 33.909121 78.023481 34.294692 77.875 34.71875 C 77.726519 35.142808 77.65625 35.598853 77.65625 36.09375 C 77.65625 36.577001 77.726519 37.019264 77.875 37.4375 C 78.023491 37.854772 78.252723 38.221702 78.53125 38.53125 C 78.809787 38.839824 79.126553 39.074359 79.53125 39.25 C 79.936911 39.426605 80.398686 39.53125 80.90625 39.53125 C 81.313859 39.53125 81.691576 39.467959 82.03125 39.34375 C 82.371888 39.219541 82.684205 39.017048 82.9375 38.78125 C 83.190795 38.545452 83.376946 38.272277 83.53125 37.9375 C 83.685554 37.603697 83.775621 37.22685 83.8125 36.8125 L 82.40625 36.8125 C 82.350936 37.257902 82.219133 37.603291 81.96875 37.875 C 81.718367 38.147673 81.350738 38.3125 80.90625 38.3125 C 80.578223 38.3125 80.322787 38.22087 80.09375 38.09375 C 79.864713 37.96663 79.672943 37.804319 79.53125 37.59375 C 79.388583 37.384145 79.283773 37.169225 79.21875 36.90625 C 79.153727 36.644239 79.125 36.372246 79.125 36.09375 C 79.125 35.803608 79.153727 35.521709 79.21875 35.25 C 79.283773 34.978291 79.388593 34.71348 79.53125 34.5 C 79.672943 34.28651 79.864713 34.126146 80.09375 34 C 80.322787 33.87288 80.578223 33.8125 80.90625 33.8125 C 81.084822 33.8125 81.273486 33.847057 81.4375 33.90625 C 81.601514 33.964469 81.744954 34.051448 81.875 34.15625 C 82.005046 34.261052 82.101131 34.36027 82.1875 34.5 C 82.273869 34.638766 82.349778 34.801843 82.375 34.96875 L 83.78125 34.96875 C 83.737583 34.585452 83.635675 34.234438 83.46875 33.9375 C 83.301825 33.640562 83.069681 33.38837 82.8125 33.1875 C 82.556293 32.985666 82.262615 32.854802 81.9375 32.75 C 81.613359 32.644224 81.271156 32.59375 80.90625 32.59375 z M 99.59375 32.59375 C 99.297752 32.59375 99.014748 32.638213 98.71875 32.71875 C 98.421788 32.799297 98.14111 32.895593 97.90625 33.0625 C 97.672364 33.23038 97.489319 33.437145 97.34375 33.6875 C 97.199145 33.937855 97.125 34.25315 97.125 34.59375 C 97.125 34.896511 97.197987 35.16152 97.3125 35.375 C 97.426049 35.58848 97.565604 35.764573 97.75 35.90625 C 97.93536 36.048901 98.141114 36.160729 98.375 36.25 C 98.60986 36.339281 98.846279 36.406646 99.09375 36.46875 C 99.334424 36.536677 99.57764 36.600942 99.8125 36.65625 C 100.04639 36.712531 100.25214 36.77 100.4375 36.84375 C 100.6219 36.918464 100.7927 37.013411 100.90625 37.125 C 101.02076 37.236599 101.0625 37.382984 101.0625 37.5625 C 101.0625 37.729407 101.02291 37.861036 100.9375 37.96875 C 100.85016 38.077438 100.75407 38.157619 100.625 38.21875 C 100.49495 38.280854 100.33502 38.322406 100.1875 38.34375 C 100.03901 38.366068 99.910322 38.40625 99.78125 38.40625 C 99.589093 38.40625 99.397322 38.359083 99.21875 38.3125 C 99.039214 38.265927 98.882958 38.189818 98.75 38.09375 C 98.617042 37.997682 98.518046 37.873037 98.4375 37.71875 C 98.356944 37.564463 98.31247 37.378474 98.3125 37.15625 L 96.90625 37.15625 C 96.899453 37.564777 96.970696 37.921812 97.125 38.21875 C 97.280278 38.515688 97.486996 38.776614 97.75 38.96875 C 98.01203 39.160886 98.3127 39.284755 98.65625 39.375 C 98.9998 39.464271 99.353844 39.53125 99.71875 39.53125 C 100.171 39.53125 100.56366 39.449526 100.90625 39.34375 C 101.2498 39.238948 101.5493 39.095475 101.78125 38.90625 C 102.01319 38.717989 102.19507 38.510063 102.3125 38.25 C 102.42993 37.989937 102.46875 37.709011 102.46875 37.40625 C 102.46875 37.034598 102.40722 36.737745 102.25 36.5 C 102.09181 36.262255 101.90392 36.048891 101.6875 35.90625 C 101.47205 35.763609 101.25058 35.658766 101.03125 35.59375 C 100.8129 35.528734 100.6545 35.493005 100.53125 35.46875 C 100.11782 35.363948 99.756207 35.286677 99.5 35.21875 C 99.243793 35.150823 99.051829 35.067927 98.90625 35 C 98.760671 34.932073 98.67449 34.861787 98.625 34.78125 C 98.5755 34.701677 98.53125 34.598782 98.53125 34.46875 C 98.53125 34.327073 98.563863 34.218157 98.625 34.125 C 98.687111 34.031843 98.778921 33.937104 98.875 33.875 C 98.970105 33.812896 99.070075 33.775229 99.1875 33.75 C 99.303961 33.725745 99.414789 33.71875 99.53125 33.71875 C 99.709822 33.71875 99.880821 33.718948 100.03125 33.75 C 100.18168 33.780078 100.32104 33.8325 100.4375 33.90625 C 100.55493 33.980964 100.6479 34.088718 100.71875 34.21875 C 100.7896 34.347808 100.83113 34.520791 100.84375 34.71875 L 102.25 34.71875 C 102.25 34.335452 102.17586 34.019761 102.03125 33.75 C 101.88568 33.481202 101.68497 33.236193 101.4375 33.0625 C 101.19099 32.88977 100.9111 32.764162 100.59375 32.6875 C 100.27543 32.609865 99.940212 32.59375 99.59375 32.59375 z M 45.28125 32.75 L 45.28125 39.375 L 48.5 39.375 C 48.797935 39.375 49.092587 39.324724 49.375 39.25 C 49.656449 39.17625 49.905673 39.061511 50.125 38.90625 C 50.345301 38.751963 50.526204 38.556068 50.65625 38.3125 C 50.786296 38.067958 50.84375 37.771313 50.84375 37.4375 C 50.84375 37.02314 50.733107 36.669017 50.53125 36.375 C 50.329393 36.080983 50.034547 35.898662 49.625 35.78125 C 49.921962 35.638609 50.129857 35.441938 50.28125 35.21875 C 50.433616 34.996526 50.53125 34.708813 50.53125 34.375 C 50.53125 34.065452 50.476902 33.804319 50.375 33.59375 C 50.272124 33.384155 50.12286 33.219896 49.9375 33.09375 C 49.751166 32.96663 49.510092 32.899058 49.25 32.84375 C 48.989908 32.788442 48.721656 32.75 48.40625 32.75 L 45.28125 32.75 z M 51.09375 32.75 L 53.53125 36.78125 L 53.53125 39.375 L 55 39.375 L 55 36.8125 L 57.4375 32.75 L 55.8125 32.75 L 54.28125 35.375 L 52.71875 32.75 L 51.09375 32.75 z M 71.0625 32.75 L 71.0625 39.375 L 72.4375 39.375 L 72.4375 34.9375 L 72.46875 34.9375 L 75.21875 39.375 L 76.65625 39.375 L 76.65625 32.75 L 75.3125 32.75 L 75.3125 37.1875 L 75.28125 37.1875 L 72.53125 32.75 L 71.0625 32.75 z M 105.15625 32.75 L 102.65625 39.375 L 104.125 39.375 L 104.625 37.90625 L 107.125 37.90625 L 107.625 39.375 L 109.125 39.375 L 106.65625 32.75 L 105.15625 32.75 z M 46.75 33.875 L 48.09375 33.875 C 48.223796 33.875 48.347439 33.884906 48.46875 33.90625 C 48.589097 33.927594 48.719333 33.975942 48.8125 34.03125 C 48.905667 34.087531 48.974962 34.151021 49.03125 34.25 C 49.086564 34.348016 49.09375 34.470713 49.09375 34.625 C 49.09375 34.902522 49.011649 35.126765 48.84375 35.25 C 48.676825 35.373235 48.478842 35.4375 48.21875 35.4375 L 46.75 35.4375 L 46.75 33.875 z M 105.875 34.375 L 105.90625 34.375 L 106.71875 36.8125 L 105 36.8125 L 105.875 34.375 z M 46.75 36.40625 L 48.34375 36.40625 C 48.659156 36.40625 48.901593 36.480411 49.09375 36.625 C 49.285907 36.770553 49.375 37.035364 49.375 37.375 C 49.375 37.54773 49.339476 37.670625 49.28125 37.78125 C 49.22205 37.892839 49.161491 37.997484 49.0625 38.0625 C 48.962536 38.126542 48.848796 38.159359 48.71875 38.1875 C 48.588704 38.215641 48.455157 38.25 48.3125 38.25 L 46.75 38.25 L 46.75 36.40625 z "
           transform="matrix(1.0062581,0,0,1.0063707,439.85891,74.911131)"
           id="path140" />
      </g>
      <g
         transform="matrix(0.9937808,0,0,0.9936696,-437.12334,-74.436914)"
         enable-background="new    "
         id="g144" />
      <g
         transform="matrix(0.9937808,0,0,0.9936696,-437.12334,-74.436914)"
         enable-background="new    "
         id="g150" />
    </g>
  </g>
</svg>
